<svg width="16" height="16" viewBox="0 0 16 16" fill="none" xmlns="http://www.w3.org/2000/svg">
<mask id="path-1-inside-1_7724_432" fill="white">
<path fill-rule="evenodd" clip-rule="evenodd" d="M4.52028 6.26046C4.53744 6.27035 4.55671 6.28087 4.57668 6.29236C4.73924 6.38423 4.85661 6.45058 4.90145 6.59061C5.07663 7.14502 6.26254 9.2054 7.86642 9.2054C9.4689 9.2054 10.6559 7.14471 10.831 6.59157C10.8748 6.45153 10.9929 6.38455 11.1558 6.29204C11.1758 6.28087 11.195 6.27035 11.2119 6.26046C11.6414 5.54815 11.5738 5.23011 11.5233 5.12484C11.462 4.99693 11.3331 4.96567 11.3187 4.96248C11.1544 4.92675 11.0314 4.78671 11.0405 4.63296C11.0409 4.62498 11.0857 3.80932 10.8682 3.06128C10.8472 2.99174 10.2968 1.29023 7.86642 1.29023C5.41716 1.29023 4.86922 3.04501 4.86397 3.06288C4.6457 3.81315 4.6916 4.62466 4.69195 4.63264C4.70211 4.79309 4.57914 4.93504 4.40571 4.96407C4.39906 4.96567 4.27013 4.99693 4.20882 5.12484C4.15872 5.23011 4.09075 5.54815 4.52028 6.26046ZM7.86636 9.8425C5.93351 9.8425 4.58433 7.72758 4.26201 6.86439C4.2445 6.85418 4.22523 6.84365 4.20666 6.83312C4.08054 6.76199 3.99715 6.71478 3.9425 6.62578C3.47829 5.87838 3.35567 5.27931 3.57814 4.84644C3.6843 4.63909 3.84545 4.51373 3.98699 4.43908C3.98664 4.11563 4.01257 3.49742 4.18704 2.89707C4.19405 2.87347 4.88633 0.651367 7.86636 0.651367C10.8464 0.651367 11.5383 2.87347 11.5453 2.8958C11.7202 3.4971 11.7461 4.11563 11.7457 4.43908C11.8869 4.51373 12.0481 4.63909 12.1542 4.84612C12.3767 5.27931 12.2537 5.87838 11.7895 6.62674C11.7352 6.71478 11.6518 6.76167 11.5257 6.8328C11.5071 6.84365 11.4882 6.85418 11.4704 6.86439C11.1466 7.72917 9.79676 9.8425 7.86636 9.8425Z"/>
</mask>
<path fill-rule="evenodd" clip-rule="evenodd" d="M4.52028 6.26046C4.53744 6.27035 4.55671 6.28087 4.57668 6.29236C4.73924 6.38423 4.85661 6.45058 4.90145 6.59061C5.07663 7.14502 6.26254 9.2054 7.86642 9.2054C9.4689 9.2054 10.6559 7.14471 10.831 6.59157C10.8748 6.45153 10.9929 6.38455 11.1558 6.29204C11.1758 6.28087 11.195 6.27035 11.2119 6.26046C11.6414 5.54815 11.5738 5.23011 11.5233 5.12484C11.462 4.99693 11.3331 4.96567 11.3187 4.96248C11.1544 4.92675 11.0314 4.78671 11.0405 4.63296C11.0409 4.62498 11.0857 3.80932 10.8682 3.06128C10.8472 2.99174 10.2968 1.29023 7.86642 1.29023C5.41716 1.29023 4.86922 3.04501 4.86397 3.06288C4.6457 3.81315 4.6916 4.62466 4.69195 4.63264C4.70211 4.79309 4.57914 4.93504 4.40571 4.96407C4.39906 4.96567 4.27013 4.99693 4.20882 5.12484C4.15872 5.23011 4.09075 5.54815 4.52028 6.26046ZM7.86636 9.8425C5.93351 9.8425 4.58433 7.72758 4.26201 6.86439C4.2445 6.85418 4.22523 6.84365 4.20666 6.83312C4.08054 6.76199 3.99715 6.71478 3.9425 6.62578C3.47829 5.87838 3.35567 5.27931 3.57814 4.84644C3.6843 4.63909 3.84545 4.51373 3.98699 4.43908C3.98664 4.11563 4.01257 3.49742 4.18704 2.89707C4.19405 2.87347 4.88633 0.651367 7.86636 0.651367C10.8464 0.651367 11.5383 2.87347 11.5453 2.8958C11.7202 3.4971 11.7461 4.11563 11.7457 4.43908C11.8869 4.51373 12.0481 4.63909 12.1542 4.84612C12.3767 5.27931 12.2537 5.87838 11.7895 6.62674C11.7352 6.71478 11.6518 6.76167 11.5257 6.8328C11.5071 6.84365 11.4882 6.85418 11.4704 6.86439C11.1466 7.72917 9.79676 9.8425 7.86636 9.8425Z" fill="#737373"/>
<path d="M4.57668 6.29236L4.22772 6.89919L4.23228 6.90177L4.57668 6.29236ZM4.90145 6.59061L5.56893 6.37972L5.56811 6.37713L4.90145 6.59061ZM10.831 6.59157L11.4984 6.80291L11.4991 6.8005L10.831 6.59157ZM11.1558 6.29204L10.8142 5.68103L10.8102 5.68333L11.1558 6.29204ZM11.2119 6.26046L11.5667 6.86386L11.7197 6.7739L11.8113 6.62193L11.2119 6.26046ZM11.5233 5.12484L12.1546 4.82232L12.1546 4.82229L11.5233 5.12484ZM11.3187 4.96248L11.4705 4.27912L11.4674 4.27846L11.3187 4.96248ZM11.0405 4.63296L11.7394 4.67436L11.7399 4.66368L11.0405 4.63296ZM10.8682 3.06128L11.5404 2.86578L11.5382 2.85874L10.8682 3.06128ZM4.86397 3.06288L4.19242 2.86532L4.19183 2.86734L4.86397 3.06288ZM4.69195 4.63264L3.99249 4.66337L3.99335 4.67687L4.69195 4.63264ZM4.40571 4.96407L4.29015 4.27368L4.26621 4.27768L4.24261 4.28334L4.40571 4.96407ZM4.20882 5.12484L3.57758 4.82229L3.57675 4.82403L4.20882 5.12484ZM4.26201 6.86439L4.91779 6.61952L4.83037 6.3854L4.61445 6.25958L4.26201 6.86439ZM4.20666 6.83312L4.55189 6.22417L4.55054 6.22341L4.20666 6.83312ZM3.9425 6.62578L4.53901 6.25946L4.53714 6.25645L3.9425 6.62578ZM3.57814 4.84644L4.20073 5.16641L4.20123 5.16544L3.57814 4.84644ZM3.98699 4.43908L4.31353 5.05826L4.68745 4.86106L4.68699 4.43833L3.98699 4.43908ZM4.18704 2.89707L3.51597 2.69788L3.51485 2.70172L4.18704 2.89707ZM11.5453 2.8958L12.2175 2.70037L12.2154 2.69327L12.2132 2.68622L11.5453 2.8958ZM11.7457 4.43908L11.0457 4.43833L11.0453 4.86057L11.4186 5.05792L11.7457 4.43908ZM12.1542 4.84612L11.5313 5.16551L11.5315 5.1659L12.1542 4.84612ZM11.7895 6.62674L11.1947 6.25775L11.1937 6.25926L11.7895 6.62674ZM11.5257 6.8328L11.1818 6.22303L11.1727 6.22836L11.5257 6.8328ZM11.4704 6.86439L11.1231 6.25658L10.9035 6.38207L10.8148 6.61898L11.4704 6.86439ZM4.17088 6.86702C4.18368 6.87439 4.19657 6.88161 4.20511 6.8864C4.21489 6.89188 4.22152 6.89561 4.22773 6.89918L4.92564 5.68554C4.91188 5.67762 4.89888 5.67034 4.88975 5.66522C4.87937 5.6594 4.87404 5.65641 4.86968 5.6539L4.17088 6.86702ZM4.23228 6.90177C4.27565 6.92628 4.30116 6.94081 4.32211 6.95374C4.34203 6.96603 4.34406 6.96859 4.33785 6.96348C4.33032 6.95726 4.31024 6.93948 4.28813 6.90902C4.26489 6.877 4.24655 6.8408 4.2348 6.8041L5.56811 6.37713C5.42463 5.92909 5.02182 5.73987 4.92109 5.68294L4.23228 6.90177ZM4.23398 6.80151C4.35654 7.18942 4.75345 7.92724 5.32472 8.57066C5.88931 9.20656 6.76276 9.9054 7.86642 9.9054V8.5054C7.36621 8.5054 6.84476 8.17405 6.37163 7.64116C5.90518 7.11579 5.62154 6.54622 5.56893 6.37972L4.23398 6.80151ZM7.86642 9.9054C8.96951 9.9054 9.84288 9.20631 10.4074 8.57074C10.9786 7.92753 11.3758 7.19008 11.4984 6.80291L10.1637 6.38023C10.1111 6.5462 9.82723 7.11566 9.36059 7.64108C8.88716 8.17414 8.36581 8.5054 7.86642 8.5054V9.9054ZM11.4991 6.8005C11.4873 6.83845 11.4686 6.87554 11.4451 6.90814C11.4228 6.93909 11.4025 6.95707 11.3951 6.96323C11.389 6.96831 11.3911 6.96566 11.4112 6.95321C11.4323 6.94012 11.458 6.92545 11.5015 6.90075L10.8102 5.68333C10.7113 5.73946 10.3041 5.93116 10.1629 6.38264L11.4991 6.8005ZM11.4974 6.90303C11.5084 6.89688 11.5411 6.87891 11.5667 6.86386L10.857 5.65705C10.849 5.66179 10.8432 5.66487 10.8142 5.68105L11.4974 6.90303ZM11.8113 6.62193C12.2908 5.82675 12.3551 5.24067 12.1546 4.82232L10.8921 5.42737C10.7925 5.21956 10.992 5.26954 10.6124 5.89899L11.8113 6.62193ZM12.1546 4.82229C11.9452 4.3854 11.5261 4.29149 11.4705 4.27912L11.167 5.64583C11.1336 5.63842 11.0942 5.62676 11.052 5.60227C11.0068 5.57605 10.9375 5.52209 10.8921 5.4274L12.1546 4.82229ZM11.4674 4.27846C11.5333 4.29277 11.5966 4.32856 11.6468 4.3873C11.6979 4.4471 11.7469 4.54694 11.7393 4.67436L10.3418 4.59156C10.3082 5.15855 10.7409 5.55319 11.17 5.64649L11.4674 4.27846ZM11.7399 4.66368C11.7397 4.66871 11.7408 4.64671 11.7418 4.61763C11.7428 4.58788 11.7438 4.54671 11.7443 4.49591C11.7453 4.39454 11.744 4.25356 11.7351 4.0873C11.7176 3.76024 11.6697 3.31077 11.5403 2.86579L10.196 3.25677C10.3783 3.88337 10.3415 4.59558 10.3412 4.60224L11.7399 4.66368ZM11.5382 2.85874C11.5072 2.75605 11.3168 2.19333 10.7601 1.64913C10.1855 1.08741 9.2648 0.590235 7.86642 0.590235V1.99023C8.89839 1.99023 9.46802 2.34381 9.78146 2.65023C10.1128 2.97417 10.2081 3.29697 10.1981 3.26383L11.5382 2.85874ZM7.86642 0.590235C6.45354 0.590235 5.52784 1.10447 4.95533 1.67328C4.4019 2.22312 4.21616 2.78463 4.19242 2.86532L5.53551 3.26043C5.51703 3.32326 5.60788 2.99845 5.94206 2.66644C6.25714 2.35339 6.83004 1.99023 7.86642 1.99023V0.590235ZM4.19183 2.86734C4.06207 3.31337 4.01426 3.76238 3.99696 4.0891C3.98816 4.25511 3.98695 4.39578 3.98802 4.49692C3.98856 4.54761 3.98967 4.58868 3.99072 4.61837C3.99171 4.64634 3.99295 4.67073 3.99262 4.66336L5.39127 4.60192C5.39095 4.59464 5.35325 3.88697 5.5361 3.25841L4.19183 2.86734ZM3.99335 4.67687C3.97758 4.42782 4.16287 4.29498 4.29015 4.27368L4.52128 5.65447C4.99541 5.5751 5.42664 5.15837 5.39055 4.5884L3.99335 4.67687ZM4.24261 4.28334C4.20084 4.29335 3.78532 4.38887 3.57758 4.82229L4.84006 5.4274C4.79501 5.52138 4.72668 5.5745 4.68319 5.60014C4.64162 5.62464 4.60204 5.63685 4.56882 5.6448L4.24261 4.28334ZM3.57675 4.82403C3.37836 5.24088 3.4406 5.82553 3.92083 6.62193L5.11973 5.89899C4.74091 5.27076 4.93908 5.21934 4.84089 5.42566L3.57675 4.82403ZM7.86636 9.1425C7.16537 9.1425 6.51446 8.75707 5.96204 8.18909C5.41103 7.62256 5.04531 6.96103 4.91779 6.61952L3.60624 7.10925C3.80104 7.63094 4.27106 8.45846 4.95844 9.16519C5.6444 9.87047 6.6345 10.5425 7.86636 10.5425V9.1425ZM4.61445 6.25958C4.59402 6.24768 4.5552 6.22605 4.55189 6.22417L3.86143 7.44207C3.89526 7.46125 3.89497 7.46068 3.90958 7.46919L4.61445 6.25958ZM4.55054 6.22341C4.53447 6.21435 4.52126 6.20689 4.509 6.19988C4.4969 6.19295 4.48742 6.18743 4.4796 6.18274C4.46328 6.17296 4.45929 6.16987 4.46141 6.17143C4.46438 6.17361 4.47642 6.18271 4.49208 6.19888C4.5085 6.21585 4.52481 6.23636 4.539 6.25947L3.346 6.99209C3.51291 7.2639 3.77523 7.39345 3.86278 7.44283L4.55054 6.22341ZM4.53714 6.25645C4.09873 5.55058 4.15822 5.24913 4.20073 5.16641L2.95555 4.52647C2.55312 5.3095 2.85786 6.20617 3.34786 6.99511L4.53714 6.25645ZM4.20123 5.16544C4.2251 5.11881 4.26267 5.08508 4.31353 5.05826L3.66046 3.81991C3.42824 3.94238 3.14349 4.15937 2.95505 4.52744L4.20123 5.16544ZM4.68699 4.43833C4.68667 4.14225 4.71168 3.60013 4.85923 3.09243L3.51485 2.70172C3.31346 3.39471 3.28661 4.089 3.28699 4.43984L4.68699 4.43833ZM4.8581 3.09627C4.84201 3.15049 4.97187 2.70489 5.41215 2.25493C5.83328 1.82453 6.57355 1.35137 7.86636 1.35137V-0.0486328C6.17914 -0.0486328 5.08326 0.589254 4.41148 1.27581C3.75886 1.9428 3.53908 2.62005 3.51598 2.69788L4.8581 3.09627ZM7.86636 1.35137C9.15917 1.35137 9.89937 1.82453 10.3204 2.2548C10.5381 2.47725 10.681 2.69966 10.7685 2.86427C10.8121 2.94621 10.8412 3.01244 10.8584 3.05516C10.867 3.07646 10.8726 3.09174 10.8755 3.09999C10.877 3.10411 10.8778 3.10649 10.878 3.10702C10.8781 3.10727 10.878 3.10711 10.8778 3.10653C10.8776 3.10581 10.8773 3.10494 10.8774 3.10538L12.2132 2.68622C12.2133 2.6866 12.213 2.68538 12.2126 2.68423C12.2122 2.68297 12.2117 2.68148 12.2112 2.67978C12.2101 2.67639 12.2088 2.67238 12.2073 2.66778C12.2042 2.65858 12.2004 2.64721 12.1957 2.63383C12.1862 2.60708 12.1733 2.57233 12.1565 2.53073C12.1229 2.44765 12.0736 2.33663 12.0047 2.2071C11.8674 1.94878 11.6497 1.61148 11.321 1.27562C10.6494 0.589257 9.55359 -0.0486328 7.86636 -0.0486328V1.35137ZM10.8732 3.09122C11.0211 3.59988 11.0461 4.14232 11.0457 4.43833L12.4457 4.43984C12.4461 4.08894 12.4193 3.39432 12.2175 2.70037L10.8732 3.09122ZM11.4186 5.05792C11.4696 5.08493 11.5075 5.11893 11.5313 5.16551L12.7771 4.52673C12.5887 4.15926 12.3042 3.94253 12.0729 3.82025L11.4186 5.05792ZM11.5315 5.1659C11.5742 5.24892 11.6334 5.55041 11.1947 6.25775L12.3844 6.99572C12.874 6.20635 13.1792 5.3097 12.7769 4.52633L11.5315 5.1659ZM11.1937 6.25926C11.2084 6.23553 11.2251 6.21469 11.2417 6.19765C11.2575 6.18142 11.2696 6.17237 11.2723 6.17035C11.2743 6.16895 11.2701 6.17215 11.2535 6.18207C11.2455 6.18682 11.2359 6.1924 11.2237 6.19939C11.2113 6.20648 11.198 6.21396 11.1818 6.2231L11.8696 7.44251C11.9547 7.39451 12.2184 7.2649 12.3853 6.99421L11.1937 6.25926ZM11.1727 6.22836C11.157 6.23749 11.1512 6.24056 11.1231 6.25658L11.8176 7.47219C11.8253 7.46779 11.8573 7.44982 11.8788 7.43725L11.1727 6.22836ZM10.8148 6.61898C10.6866 6.96155 10.3202 7.62322 9.76916 8.18959C9.21658 8.75752 8.56609 9.1425 7.86636 9.1425V10.5425C9.09704 10.5425 10.0867 9.87082 10.7726 9.16589C11.46 8.4594 11.9305 7.63201 12.1259 7.10979L10.8148 6.61898Z" fill="#737373" mask="url(#path-1-inside-1_7724_432)"/>
<mask id="path-3-inside-2_7724_432" fill="white">
<path fill-rule="evenodd" clip-rule="evenodd" d="M10.3936 9.94348C10.3393 9.94348 10.2843 9.93199 10.2325 9.90775C9.52197 9.57185 9.31036 9.24425 9.27533 9.18204C9.18704 9.02542 9.25466 8.83306 9.42668 8.75268C9.5973 8.67325 9.8033 8.73226 9.89369 8.88219C9.90455 8.89782 10.0569 9.10612 10.5555 9.34122C10.7272 9.42256 10.7941 9.61491 10.7051 9.77122C10.6427 9.88095 10.5201 9.94348 10.3936 9.94348Z"/>
</mask>
<path fill-rule="evenodd" clip-rule="evenodd" d="M10.3936 9.94348C10.3393 9.94348 10.2843 9.93199 10.2325 9.90775C9.52197 9.57185 9.31036 9.24425 9.27533 9.18204C9.18704 9.02542 9.25466 8.83306 9.42668 8.75268C9.5973 8.67325 9.8033 8.73226 9.89369 8.88219C9.90455 8.89782 10.0569 9.10612 10.5555 9.34122C10.7272 9.42256 10.7941 9.61491 10.7051 9.77122C10.6427 9.88095 10.5201 9.94348 10.3936 9.94348Z" fill="#737373"/>
<path d="M10.2325 9.90775L9.93328 10.5406L9.93599 10.5419L10.2325 9.90775ZM9.27533 9.18204L9.88524 8.83852L9.88512 8.83831L9.27533 9.18204ZM9.42668 8.75268L9.13125 8.11807L9.13032 8.11851L9.42668 8.75268ZM9.89369 8.88219L9.29421 9.24361L9.30591 9.26301L9.31883 9.28162L9.89369 8.88219ZM10.5555 9.34122L10.8552 8.70864L10.8541 8.70809L10.5555 9.34122ZM10.7051 9.77122L10.0968 9.42489L10.0965 9.42536L10.7051 9.77122ZM10.3936 9.24348C10.4383 9.24348 10.4849 9.25302 10.529 9.27364L9.93599 10.5419C10.0838 10.611 10.2404 10.6435 10.3936 10.6435V9.24348ZM10.5317 9.27491C9.93744 8.99398 9.84154 8.76093 9.88524 8.83852L8.66541 9.52556C8.77918 9.72756 9.10651 10.1497 9.93329 10.5406L10.5317 9.27491ZM9.88512 8.83831C9.94284 8.94071 9.95143 9.06399 9.91364 9.17131C9.87654 9.27663 9.80174 9.35007 9.72303 9.38685L9.13032 8.11851C8.62491 8.35469 8.35818 8.98051 8.66553 9.52577L9.88512 8.83831ZM9.72211 9.38728C9.64897 9.42133 9.57077 9.4249 9.50145 9.40548C9.43282 9.38625 9.35077 9.33742 9.29421 9.24361L10.4932 8.52077C10.2033 8.03994 9.59947 7.9001 9.13125 8.11808L9.72211 9.38728ZM9.31883 9.28162C9.40802 9.40997 9.66134 9.69349 10.2569 9.97435L10.8541 8.70809C10.4526 8.51875 10.4011 8.38567 10.4685 8.48276L9.31883 9.28162ZM10.2558 9.9738C10.178 9.93695 10.1036 9.86364 10.0669 9.75811C10.0294 9.65043 10.0386 9.52702 10.0968 9.42489L11.3134 10.1175C11.6236 9.57269 11.358 8.94685 10.8552 8.70864L10.2558 9.9738ZM10.0965 9.42536C10.1747 9.28768 10.3029 9.24348 10.3936 9.24348V10.6435C10.7373 10.6435 11.1107 10.4742 11.3137 10.1171L10.0965 9.42536Z" fill="#737373" mask="url(#path-3-inside-2_7724_432)"/>
<mask id="path-5-inside-3_7724_432" fill="white">
<path fill-rule="evenodd" clip-rule="evenodd" d="M8.04885 15.3483C4.01848 15.3483 0.326897 14.7378 0.287308 14.7311C0.114938 14.7024 -0.00768287 14.5617 0.000375059 14.4022C0.167139 11.2212 2.34348 10.2333 3.96628 9.76725C5.23067 9.40392 5.89248 8.8157 5.89878 8.80964C6.03647 8.68587 6.25824 8.6865 6.39417 8.81155C6.53045 8.93691 6.52975 9.13884 6.39207 9.26292C6.36054 9.29131 5.60169 9.9663 4.17684 10.3756C2.59608 10.8298 0.962422 11.6375 0.721035 14.1515C1.77032 14.3081 5.34769 14.7901 8.98322 14.6986C9.17976 14.6941 9.33812 14.8325 9.34337 15.0086C9.34863 15.1847 9.19623 15.3314 9.00319 15.3362C8.68367 15.3445 8.36521 15.3483 8.04885 15.3483Z"/>
</mask>
<path fill-rule="evenodd" clip-rule="evenodd" d="M8.04885 15.3483C4.01848 15.3483 0.326897 14.7378 0.287308 14.7311C0.114938 14.7024 -0.00768287 14.5617 0.000375059 14.4022C0.167139 11.2212 2.34348 10.2333 3.96628 9.76725C5.23067 9.40392 5.89248 8.8157 5.89878 8.80964C6.03647 8.68587 6.25824 8.6865 6.39417 8.81155C6.53045 8.93691 6.52975 9.13884 6.39207 9.26292C6.36054 9.29131 5.60169 9.9663 4.17684 10.3756C2.59608 10.8298 0.962422 11.6375 0.721035 14.1515C1.77032 14.3081 5.34769 14.7901 8.98322 14.6986C9.17976 14.6941 9.33812 14.8325 9.34337 15.0086C9.34863 15.1847 9.19623 15.3314 9.00319 15.3362C8.68367 15.3445 8.36521 15.3483 8.04885 15.3483Z" fill="#737373"/>
<path d="M0.287308 14.7311L0.404095 14.0409L0.402313 14.0406L0.287308 14.7311ZM0.000375059 14.4022L-0.698666 14.3656L-0.698733 14.3669L0.000375059 14.4022ZM3.96628 9.76725L4.1595 10.4401L4.15961 10.44L3.96628 9.76725ZM5.89878 8.80964L5.43082 8.28905L5.42214 8.29685L5.41372 8.30494L5.89878 8.80964ZM6.39417 8.81155L5.92026 9.32673L5.92027 9.32673L6.39417 8.81155ZM6.39207 9.26292L6.86046 9.78313L6.8607 9.78291L6.39207 9.26292ZM4.17684 10.3756L3.98359 9.70277L3.98351 9.7028L4.17684 10.3756ZM0.721035 14.1515L0.0242392 14.0846L-0.0392455 14.7458L0.617691 14.8438L0.721035 14.1515ZM8.98322 14.6986L8.96732 13.9987L8.9656 13.9988L8.98322 14.6986ZM9.00319 15.3362L8.98584 14.6364L8.98502 14.6365L9.00319 15.3362ZM8.04885 14.6483C6.06652 14.6483 4.1624 14.498 2.74615 14.3462C2.03892 14.2704 1.45543 14.1944 1.04725 14.1372C0.843204 14.1085 0.683097 14.0846 0.573384 14.0677C0.518529 14.0592 0.476298 14.0526 0.447498 14.048C0.417999 14.0432 0.403589 14.0408 0.404094 14.0409L0.170521 15.4213C0.22457 15.4304 3.96077 16.0483 8.04885 16.0483V14.6483ZM0.402313 14.0406C0.530824 14.062 0.711813 14.1935 0.699483 14.4375L-0.698733 14.3669C-0.727179 14.9299 -0.300948 15.3428 0.172302 15.4216L0.402313 14.0406ZM0.699415 14.4389C0.773616 13.0235 1.28364 12.1563 1.90998 11.583C2.5586 10.9892 3.38446 10.6626 4.1595 10.4401L3.77306 9.09445C2.92531 9.33791 1.8516 9.73836 0.964651 10.5503C0.0554253 11.3827 -0.606102 12.5999 -0.698665 14.3656L0.699415 14.4389ZM4.15961 10.44C5.54663 10.0415 6.30589 9.38925 6.38384 9.31433L5.41372 8.30494C5.47906 8.24215 4.91471 8.76638 3.77295 9.09448L4.15961 10.44ZM6.36675 9.33022C6.29538 9.39437 6.21315 9.41753 6.14464 9.41728C6.07608 9.41704 5.99251 9.39319 5.92026 9.32673L6.86808 8.29637C6.46451 7.92512 5.83486 7.92585 5.43082 8.28905L6.36675 9.33022ZM5.92027 9.32673C5.84602 9.25843 5.79536 9.15322 5.79586 9.03471C5.79637 8.91604 5.84809 8.81084 5.92344 8.74294L6.8607 9.78291C7.30559 9.38196 7.30709 8.7002 6.86807 8.29637L5.92027 9.32673ZM5.92368 8.74272C5.94443 8.72404 5.27669 9.33135 3.98359 9.70277L4.37009 11.0484C5.92669 10.6013 6.77665 9.85859 6.86046 9.78313L5.92368 8.74272ZM3.98351 9.7028C3.16012 9.93941 2.23343 10.2908 1.47822 10.971C0.701111 11.6709 0.160229 12.6683 0.0242392 14.0846L1.41783 14.2184C1.52323 13.1207 1.91987 12.4573 2.41512 12.0113C2.93228 11.5455 3.6128 11.266 4.37016 11.0483L3.98351 9.7028ZM0.617691 14.8438C1.68027 15.0024 5.30467 15.4914 9.00084 15.3983L8.9656 13.9988C5.39071 14.0888 1.86036 13.6138 0.824378 13.4592L0.617691 14.8438ZM8.99912 15.3984C8.87296 15.4012 8.65167 15.2969 8.64368 15.0295L10.0431 14.9877C10.0246 14.3681 9.48656 13.9869 8.96732 13.9987L8.99912 15.3984ZM8.64368 15.0295C8.63559 14.7581 8.85348 14.6397 8.98584 14.6364L9.02053 16.036C9.53897 16.0232 10.0617 15.6113 10.0431 14.9877L8.64368 15.0295ZM8.98502 14.6365C8.67197 14.6446 8.35958 14.6483 8.04885 14.6483V16.0483C8.37084 16.0483 8.69538 16.0444 9.02135 16.036L8.98502 14.6365Z" fill="#737373" mask="url(#path-5-inside-3_7724_432)"/>
<mask id="path-7-inside-4_7724_432" fill="white">
<path fill-rule="evenodd" clip-rule="evenodd" d="M11.0953 11.1892V14.6981H15.2998L15.2994 11.1892H11.0953ZM15.2994 15.3352H11.0952C10.7088 15.3352 10.3945 15.049 10.3945 14.6972V11.1883C10.3945 10.8364 10.7088 10.5503 11.0952 10.5503H15.2994C15.6858 10.5503 16.0001 10.8364 16.0001 11.1883V14.6972C16.0001 15.049 15.6858 15.3352 15.2994 15.3352Z"/>
</mask>
<path fill-rule="evenodd" clip-rule="evenodd" d="M11.0953 11.1892V14.6981H15.2998L15.2994 11.1892H11.0953ZM15.2994 15.3352H11.0952C10.7088 15.3352 10.3945 15.049 10.3945 14.6972V11.1883C10.3945 10.8364 10.7088 10.5503 11.0952 10.5503H15.2994C15.6858 10.5503 16.0001 10.8364 16.0001 11.1883V14.6972C16.0001 15.049 15.6858 15.3352 15.2994 15.3352Z" fill="#737373"/>
<path d="M11.0953 11.1892V10.4892H10.3953V11.1892H11.0953ZM11.0953 14.6981H10.3953V15.3981H11.0953V14.6981ZM15.2998 14.6981V15.3981H15.9999L15.9998 14.698L15.2998 14.6981ZM15.2994 11.1892L15.9994 11.1891L15.9994 10.4892H15.2994V11.1892ZM10.3953 11.1892V14.6981H11.7953V11.1892H10.3953ZM11.0953 15.3981H15.2998V13.9981H11.0953V15.3981ZM15.9998 14.698L15.9994 11.1891L14.5994 11.1892L14.5998 14.6981L15.9998 14.698ZM15.2994 10.4892H11.0953V11.8892H15.2994V10.4892ZM15.2994 14.6352H11.0952V16.0352H15.2994V14.6352ZM11.0952 14.6352C11.0751 14.6352 11.0683 14.6279 11.0712 14.6305C11.073 14.6321 11.0787 14.638 11.0843 14.65C11.0903 14.6629 11.0945 14.6795 11.0945 14.6972H9.69453C9.69453 15.496 10.3854 16.0352 11.0952 16.0352V14.6352ZM11.0945 14.6972V11.1883H9.69453V14.6972H11.0945ZM11.0945 11.1883C11.0945 11.206 11.0903 11.2226 11.0843 11.2354C11.0787 11.2475 11.073 11.2533 11.0712 11.2549C11.0683 11.2576 11.0751 11.2503 11.0952 11.2503V9.85029C10.3854 9.85029 9.69453 10.3895 9.69453 11.1883H11.0945ZM11.0952 11.2503H15.2994V9.85029H11.0952V11.2503ZM15.2994 11.2503C15.3194 11.2503 15.3262 11.2576 15.3233 11.2549C15.3216 11.2533 15.3159 11.2475 15.3102 11.2354C15.3043 11.2226 15.3001 11.206 15.3001 11.1883H16.7001C16.7001 10.3895 16.0092 9.85029 15.2994 9.85029V11.2503ZM15.3001 11.1883V14.6972H16.7001V11.1883H15.3001ZM15.3001 14.6972C15.3001 14.6795 15.3043 14.6629 15.3102 14.65C15.3159 14.638 15.3216 14.6321 15.3233 14.6305C15.3262 14.6279 15.3194 14.6352 15.2994 14.6352V16.0352C16.0092 16.0352 16.7001 15.496 16.7001 14.6972H15.3001Z" fill="#737373" mask="url(#path-7-inside-4_7724_432)"/>
<mask id="path-9-inside-5_7724_432" fill="white">
<path fill-rule="evenodd" clip-rule="evenodd" d="M15.2994 12.7854H11.0952C10.9015 12.7854 10.7449 12.6425 10.7449 12.4665C10.7449 12.2904 10.9015 12.1475 11.0952 12.1475H15.2994C15.4931 12.1475 15.6497 12.2904 15.6497 12.4665C15.6497 12.6425 15.4931 12.7854 15.2994 12.7854Z"/>
</mask>
<path fill-rule="evenodd" clip-rule="evenodd" d="M15.2994 12.7854H11.0952C10.9015 12.7854 10.7449 12.6425 10.7449 12.4665C10.7449 12.2904 10.9015 12.1475 11.0952 12.1475H15.2994C15.4931 12.1475 15.6497 12.2904 15.6497 12.4665C15.6497 12.6425 15.4931 12.7854 15.2994 12.7854Z" fill="#737373"/>
<path d="M15.2994 12.0854H11.0952V13.4854H15.2994V12.0854ZM11.0952 12.0854C11.2253 12.0854 11.4449 12.1961 11.4449 12.4665H10.0449C10.0449 13.089 10.5776 13.4854 11.0952 13.4854V12.0854ZM11.4449 12.4665C11.4449 12.7369 11.2253 12.8475 11.0952 12.8475V11.4475C10.5776 11.4475 10.0449 11.8439 10.0449 12.4665H11.4449ZM11.0952 12.8475H15.2994V11.4475H11.0952V12.8475ZM15.2994 12.8475C15.1692 12.8475 14.9497 12.7369 14.9497 12.4665H16.3497C16.3497 11.8439 15.817 11.4475 15.2994 11.4475V12.8475ZM14.9497 12.4665C14.9497 12.1961 15.1692 12.0854 15.2994 12.0854V13.4854C15.817 13.4854 16.3497 13.089 16.3497 12.4665H14.9497Z" fill="#737373" mask="url(#path-9-inside-5_7724_432)"/>
<mask id="path-11-inside-6_7724_432" fill="white">
<path fill-rule="evenodd" clip-rule="evenodd" d="M12.1462 11.828C11.9525 11.828 11.7959 11.6851 11.7959 11.509V10.2331C11.7959 10.057 11.9525 9.91406 12.1462 9.91406C12.34 9.91406 12.4966 10.057 12.4966 10.2331V11.509C12.4966 11.6851 12.34 11.828 12.1462 11.828Z"/>
</mask>
<path fill-rule="evenodd" clip-rule="evenodd" d="M12.1462 11.828C11.9525 11.828 11.7959 11.6851 11.7959 11.509V10.2331C11.7959 10.057 11.9525 9.91406 12.1462 9.91406C12.34 9.91406 12.4966 10.057 12.4966 10.2331V11.509C12.4966 11.6851 12.34 11.828 12.1462 11.828Z" fill="#737373"/>
<path d="M12.1462 11.128C12.2764 11.128 12.4959 11.2386 12.4959 11.509H11.0959C11.0959 12.1316 11.6286 12.528 12.1462 12.528V11.128ZM12.4959 11.509V10.2331H11.0959V11.509H12.4959ZM12.4959 10.2331C12.4959 10.5035 12.2764 10.6141 12.1462 10.6141V9.21406C11.6286 9.21406 11.0959 9.61049 11.0959 10.2331H12.4959ZM12.1462 10.6141C12.0161 10.6141 11.7966 10.5035 11.7966 10.2331H13.1966C13.1966 9.61049 12.6639 9.21406 12.1462 9.21406V10.6141ZM11.7966 10.2331V11.509H13.1966V10.2331H11.7966ZM11.7966 11.509C11.7966 11.2386 12.0161 11.128 12.1462 11.128V12.528C12.6639 12.528 13.1966 12.1316 13.1966 11.509H11.7966Z" fill="#737373" mask="url(#path-11-inside-6_7724_432)"/>
<mask id="path-13-inside-7_7724_432" fill="white">
<path fill-rule="evenodd" clip-rule="evenodd" d="M14.2483 11.828C14.0546 11.828 13.8979 11.6851 13.8979 11.509V10.2331C13.8979 10.057 14.0546 9.91406 14.2483 9.91406C14.442 9.91406 14.5986 10.057 14.5986 10.2331V11.509C14.5986 11.6851 14.442 11.828 14.2483 11.828Z"/>
</mask>
<path fill-rule="evenodd" clip-rule="evenodd" d="M14.2483 11.828C14.0546 11.828 13.8979 11.6851 13.8979 11.509V10.2331C13.8979 10.057 14.0546 9.91406 14.2483 9.91406C14.442 9.91406 14.5986 10.057 14.5986 10.2331V11.509C14.5986 11.6851 14.442 11.828 14.2483 11.828Z" fill="#737373"/>
<path d="M14.2483 11.128C14.3784 11.128 14.5979 11.2386 14.5979 11.509H13.1979C13.1979 12.1316 13.7307 12.528 14.2483 12.528V11.128ZM14.5979 11.509V10.2331H13.1979V11.509H14.5979ZM14.5979 10.2331C14.5979 10.5035 14.3784 10.6141 14.2483 10.6141V9.21406C13.7307 9.21406 13.1979 9.61049 13.1979 10.2331H14.5979ZM14.2483 10.6141C14.1182 10.6141 13.8986 10.5035 13.8986 10.2331H15.2986C15.2986 9.61049 14.7659 9.21406 14.2483 9.21406V10.6141ZM13.8986 10.2331V11.509H15.2986V10.2331H13.8986ZM13.8986 11.509C13.8986 11.2386 14.1182 11.128 14.2483 11.128V12.528C14.7659 12.528 15.2986 12.1316 15.2986 11.509H13.8986Z" fill="#737373" mask="url(#path-13-inside-7_7724_432)"/>
</svg>
