<svg width="16" height="16" viewBox="0 0 16 16" fill="none" xmlns="http://www.w3.org/2000/svg">
<path d="M5.33328 3.83252C5.20094 3.83165 5.07427 3.77869 4.98069 3.68511C4.88711 3.59153 4.83416 3.46486 4.83328 3.33252V1.33252C4.83416 1.20018 4.88711 1.07351 4.98069 0.979931C5.07427 0.886352 5.20094 0.833393 5.33328 0.83252C5.46562 0.833393 5.59229 0.886352 5.68587 0.979931C5.77945 1.07351 5.83241 1.20018 5.83328 1.33252V3.33252C5.83241 3.46486 5.77945 3.59153 5.68587 3.68511C5.59229 3.77869 5.46562 3.83165 5.33328 3.83252Z" fill="#4399FE"/>
<path d="M10.6667 3.83252C10.5344 3.83165 10.4077 3.77869 10.3141 3.68511C10.2205 3.59153 10.1676 3.46486 10.1667 3.33252V1.33252C10.1676 1.20018 10.2205 1.07351 10.3141 0.979931C10.4077 0.886352 10.5344 0.833393 10.6667 0.83252C10.7991 0.833393 10.9257 0.886352 11.0193 0.979931C11.1129 1.07351 11.1658 1.20018 11.1667 1.33252V3.33252C11.1658 3.46486 11.1129 3.59153 11.0193 3.68511C10.9257 3.77869 10.7991 3.83165 10.6667 3.83252Z" fill="#4399FE"/>
<path d="M5.66667 9.66659C5.57955 9.66553 5.49348 9.64741 5.41333 9.61325C5.33153 9.58024 5.25684 9.53181 5.19333 9.47059C5.07117 9.34413 5.002 9.17574 5 8.99992C5.00105 8.9128 5.01917 8.82674 5.05333 8.74659C5.08715 8.66583 5.1345 8.59143 5.19333 8.52659C5.25707 8.46632 5.33175 8.4188 5.41333 8.38659C5.53506 8.33735 5.66842 8.32437 5.79735 8.34921C5.92629 8.37405 6.04528 8.43565 6.14 8.52659C6.26171 8.65442 6.33075 8.82344 6.33333 8.99992C6.33187 9.04461 6.32742 9.08916 6.32 9.13325C6.31274 9.17503 6.29926 9.21548 6.28 9.25325C6.26543 9.29575 6.24525 9.3361 6.22 9.37325C6.19539 9.40818 6.16868 9.44158 6.14 9.47325C6.01217 9.59496 5.84315 9.664 5.66667 9.66659Z" fill="#4399FE"/>
<path d="M7.99995 9.66775C7.91283 9.6667 7.82676 9.64858 7.74662 9.61442C7.66503 9.5822 7.59035 9.53468 7.52662 9.47442C7.40382 9.3473 7.3346 9.17783 7.33328 9.00109C7.33425 8.91374 7.35237 8.82744 7.38662 8.74709C7.42044 8.66633 7.46778 8.59193 7.52662 8.52709C7.59035 8.46682 7.66503 8.4193 7.74662 8.38709C7.86802 8.33603 8.00183 8.32208 8.13116 8.347C8.26048 8.37192 8.37953 8.43458 8.47328 8.52709C8.59515 8.65508 8.6642 8.82437 8.66662 9.00109C8.66516 9.04578 8.6607 9.09032 8.65328 9.13442C8.64602 9.17619 8.63254 9.21664 8.61328 9.25442C8.59871 9.29691 8.57853 9.33727 8.55328 9.37442C8.52867 9.40935 8.50196 9.44274 8.47328 9.47442C8.34545 9.59613 8.17643 9.66516 7.99995 9.66775Z" fill="#4399FE"/>
<path d="M10.3334 9.66775C10.2463 9.6667 10.1602 9.64858 10.0801 9.61442C9.99846 9.5822 9.92379 9.53468 9.86005 9.47442L9.78005 9.37442C9.7548 9.33727 9.73462 9.29691 9.72005 9.25442C9.70079 9.21664 9.68731 9.17619 9.68005 9.13442C9.67263 9.09032 9.66818 9.04578 9.66672 9.00109C9.66914 8.82437 9.73819 8.65508 9.86005 8.52709C9.92379 8.46682 9.99846 8.4193 10.0801 8.38709C10.2015 8.33603 10.3353 8.32208 10.4646 8.347C10.5939 8.37192 10.713 8.43458 10.8067 8.52709C10.9286 8.65508 10.9976 8.82437 11.0001 9.00109C10.9986 9.04578 10.9941 9.09032 10.9867 9.13442C10.9795 9.17619 10.966 9.21664 10.9467 9.25442C10.9321 9.29691 10.912 9.33727 10.8867 9.37442C10.8621 9.40935 10.8354 9.44274 10.8067 9.47442C10.6789 9.59613 10.5099 9.66516 10.3334 9.66775Z" fill="#4399FE"/>
<path d="M5.66667 12.0006C5.57955 11.9996 5.49348 11.9814 5.41333 11.9473C5.33272 11.9141 5.25832 11.8674 5.19333 11.8093C5.07116 11.6809 5.00208 11.5111 5 11.3339C5.00105 11.2468 5.01917 11.1608 5.05333 11.0806C5.08401 10.9984 5.13172 10.9237 5.19333 10.8613C5.32226 10.7423 5.49125 10.6763 5.66667 10.6763C5.84209 10.6763 6.01108 10.7423 6.14 10.8613C6.26155 10.9889 6.33058 11.1577 6.33333 11.3339C6.33075 11.5104 6.26171 11.6795 6.14 11.8073C6.01217 11.929 5.84315 11.998 5.66667 12.0006Z" fill="#4399FE"/>
<path d="M7.99995 12.0006C7.82374 11.9986 7.65475 11.9303 7.52662 11.8093C7.40444 11.6809 7.33537 11.5111 7.33328 11.3339C7.33434 11.2468 7.35246 11.1608 7.38662 11.0806C7.4173 10.9984 7.46501 10.9237 7.52662 10.8613C7.65554 10.7423 7.82453 10.6763 7.99995 10.6763C8.17537 10.6763 8.34436 10.7423 8.47328 10.8613C8.53497 10.9239 8.58268 10.9989 8.61328 11.0813C8.64736 11.1612 8.66548 11.2471 8.66662 11.3339C8.66403 11.5104 8.59499 11.6795 8.47328 11.8073C8.34545 11.929 8.17643 11.998 7.99995 12.0006Z" fill="#4399FE"/>
<path d="M10.3334 11.9998C10.1569 11.9972 9.98788 11.9282 9.86005 11.8065C9.79836 11.7438 9.75065 11.6689 9.72005 11.5865C9.68589 11.5063 9.66777 11.4202 9.66672 11.3331C9.66786 11.2462 9.68598 11.1604 9.72005 11.0805C9.75065 10.9981 9.79836 10.9231 9.86005 10.8605C9.93766 10.7836 10.033 10.727 10.1376 10.6956C10.2422 10.6642 10.3529 10.659 10.4601 10.6805C10.5042 10.6866 10.547 10.7002 10.5867 10.7205C10.6292 10.735 10.6696 10.7552 10.7067 10.7805C10.7416 10.8051 10.775 10.8318 10.8067 10.8605C10.9283 10.9881 10.9973 11.1569 11.0001 11.3331C10.9975 11.5096 10.9284 11.6786 10.8067 11.8065C10.6789 11.9282 10.5099 11.9972 10.3334 11.9998Z" fill="#4399FE"/>
<path d="M13.6666 6.56006H2.33328C2.20094 6.55919 2.07427 6.50623 1.98069 6.41265C1.88711 6.31907 1.83416 6.1924 1.83328 6.06006C1.83416 5.92772 1.88711 5.80105 1.98069 5.70747C2.07427 5.61389 2.20094 5.56093 2.33328 5.56006H13.6666C13.799 5.56093 13.9256 5.61389 14.0192 5.70747C14.1128 5.80105 14.1657 5.92772 14.1666 6.06006C14.1657 6.1924 14.1128 6.31907 14.0192 6.41265C13.9256 6.50623 13.799 6.55919 13.6666 6.56006Z" fill="#4399FE"/>
<path d="M10.6667 15.1659H5.33333C2.9 15.1659 1.5 13.7659 1.5 11.3325V5.66585C1.5 3.23252 2.9 1.83252 5.33333 1.83252H10.6667C13.1 1.83252 14.5 3.23252 14.5 5.66585V11.3325C14.5 13.7659 13.1 15.1659 10.6667 15.1659ZM5.33333 2.83252C3.42667 2.83252 2.5 3.75919 2.5 5.66585V11.3325C2.5 13.2392 3.42667 14.1659 5.33333 14.1659H10.6667C12.5733 14.1659 13.5 13.2392 13.5 11.3325V5.66585C13.5 3.75919 12.5733 2.83252 10.6667 2.83252H5.33333Z" fill="#4399FE"/>
</svg>
