<svg width="25" height="22" viewBox="0 0 25 22" fill="none" xmlns="http://www.w3.org/2000/svg">
<path d="M15.2915 10.8963L12.6248 13.1328L9.95817 10.8963" stroke="white" stroke-width="1.5" stroke-linecap="round" stroke-linejoin="round"/>
<path d="M12.625 4.18652L12.625 13.0713" stroke="white" stroke-width="1.5" stroke-linecap="round" stroke-linejoin="round"/>
<path d="M4.1669 11.0957C4.11509 12.025 4.29517 12.9532 4.69563 13.8208C5.09609 14.6885 5.7081 15.4764 6.4925 16.1343C7.2769 16.7921 8.21641 17.3054 9.25092 17.6413C10.2854 17.9771 11.3921 18.1282 12.5002 18.0847C13.6083 18.1282 14.715 17.9771 15.7495 17.6413C16.7841 17.3054 17.7236 16.7921 18.508 16.1343C19.2924 15.4764 19.9044 14.6885 20.3048 13.8208C20.7053 12.9532 20.8854 12.025 20.8336 11.0957" stroke="white" stroke-width="1.5" stroke-linecap="round" stroke-linejoin="round"/>
</svg>
