<svg width="9" height="9" viewBox="0 0 9 9" fill="none" xmlns="http://www.w3.org/2000/svg">
<path d="M4.02344 1.36719H3.39714C1.83138 1.36719 1.20508 1.99349 1.20508 3.55924V5.43815C1.20508 7.00391 1.83138 7.63021 3.39714 7.63021H5.27604C6.8418 7.63021 7.4681 7.00391 7.4681 5.43815V4.81185" stroke="white" stroke-width="0.5" stroke-linecap="round" stroke-linejoin="round"/>
<path d="M5.60092 1.6852L3.13329 4.15283C3.02751 4.26886 2.95597 4.41194 2.92661 4.56619L2.79196 5.50877C2.7756 5.58206 2.77802 5.65828 2.79898 5.73039C2.81994 5.80249 2.85876 5.86813 2.91186 5.92123C2.96495 5.97432 3.0306 6.01315 3.1027 6.03411C3.1748 6.05507 3.25103 6.05748 3.32432 6.04113L4.2669 5.90647C4.42069 5.87578 4.56343 5.80441 4.68026 5.69979L7.14789 3.23216C7.57378 2.80628 7.77419 2.3115 7.14789 1.6852C6.52159 1.05889 6.02681 1.25931 5.60092 1.6852Z" stroke="white" stroke-width="0.5" stroke-linecap="round" stroke-linejoin="round"/>
<path d="M5.24707 2.04102C5.35091 2.40974 5.54769 2.74563 5.81856 3.0165C6.08943 3.28736 6.42531 3.48414 6.79404 3.58798" stroke="white" stroke-width="0.5" stroke-linecap="round" stroke-linejoin="round"/>
</svg>
