<svg width="18" height="18" viewBox="0 0 18 18" fill="none" xmlns="http://www.w3.org/2000/svg">
<g id="vuesax/linear/edit-2">
<g id="edit-2">
<path id="Vector" d="M9.94496 2.70027L3.78746 9.21777C3.52871 9.52496 3.3554 9.89486 3.28496 10.2903L3.00746 12.721C2.97108 12.91 2.98292 13.1051 3.04188 13.2883C3.10084 13.4716 3.20502 13.6369 3.3448 13.7693C3.48457 13.9016 3.65544 13.9965 3.84161 14.0453C4.02778 14.0941 4.22325 14.0952 4.40996 14.0485L6.82496 13.636C7.21822 13.5497 7.57939 13.3548 7.86746 13.0735L14.025 6.55602C15.09 5.43102 15.57 4.14852 13.9125 2.58102C12.2625 1.02777 11.01 1.57527 9.94496 2.70027Z" stroke="#015490" stroke-width="1.2" stroke-linecap="round" stroke-linejoin="round"/>
<path id="Vector_2" d="M8.91748 3.78711C9.07471 4.79275 9.56143 5.71771 10.3012 6.41679C11.041 7.11588 11.9921 7.54951 13.005 7.64961" stroke="#015490" stroke-width="1.2" stroke-linecap="round" stroke-linejoin="round"/>
<path id="Vector_3" d="M2.25 16.5H15.75" stroke="#015490" stroke-width="1.2" stroke-linecap="round" stroke-linejoin="round"/>
</g>
</g>
</svg>
