<svg width="18" height="19" viewBox="0 0 18 19" fill="none" xmlns="http://www.w3.org/2000/svg">
<path d="M6.81641 4.98445L8.68884 3.02148L10.5613 4.98445" stroke="white" stroke-width="1.2" stroke-linecap="round" stroke-linejoin="round"/>
<path d="M8.68945 10.8724V3.07422" stroke="white" stroke-width="1.2" stroke-linecap="round" stroke-linejoin="round"/>
<path d="M2.92505 9.20117C2.88867 10.0169 3.01512 10.8315 3.29631 11.593C3.5775 12.3545 4.00723 13.0461 4.558 13.6235C5.10878 14.201 5.76847 14.6515 6.49487 14.9462C7.22126 15.241 7.99835 15.3736 8.77642 15.3354C9.55448 15.3736 10.3316 15.241 11.058 14.9462C11.7844 14.6515 12.4441 14.201 12.9948 13.6235C13.5456 13.0461 13.9753 12.3545 14.2565 11.593C14.5377 10.8315 14.6642 10.0169 14.6278 9.20117" stroke="white" stroke-width="1.2" stroke-linecap="round" stroke-linejoin="round"/>
</svg>
