<svg width="18" height="18" viewBox="0 0 18 18" fill="none" xmlns="http://www.w3.org/2000/svg">
<path d="M11.6849 8.99945C11.6849 9.5305 11.5275 10.0496 11.2324 10.4912C10.9374 10.9327 10.5181 11.2769 10.0274 11.4801C9.53683 11.6833 8.99696 11.7365 8.47613 11.6329C7.95529 11.5293 7.47686 11.2735 7.10136 10.898C6.72586 10.5225 6.47014 10.0441 6.36653 9.52327C6.26293 9.00243 6.3161 8.46257 6.51933 7.97195C6.72255 7.48133 7.06669 7.06199 7.50824 6.76696C7.94978 6.47193 8.4689 6.31445 8.99994 6.31445C9.35265 6.31406 9.70198 6.38324 10.0279 6.51803C10.3539 6.65283 10.65 6.85059 10.8994 7.09999C11.1488 7.3494 11.3466 7.64555 11.4814 7.97148C11.6162 8.29742 11.6853 8.64674 11.6849 8.99945V8.99945Z" stroke="#015490" stroke-width="1.2" stroke-linecap="round" stroke-linejoin="round"/>
<path d="M9.00009 15.2016C11.6476 15.2016 14.1151 13.6416 15.8326 10.9416C16.1645 10.3466 16.3388 9.67662 16.3388 8.99531C16.3388 8.31401 16.1645 7.64403 15.8326 7.04906C14.1113 4.34906 11.6476 2.78906 9.00009 2.78906C6.35259 2.78906 3.88509 4.34906 2.16759 7.04906C1.83564 7.64403 1.66138 8.31401 1.66138 8.99531C1.66138 9.67662 1.83564 10.3466 2.16759 10.9416C3.88509 13.6416 6.35259 15.2016 9.00009 15.2016Z" stroke="#015490" stroke-width="1.2" stroke-linecap="round" stroke-linejoin="round"/>
</svg>
