<svg width="199" height="65" viewBox="0 0 199 65" fill="none" xmlns="http://www.w3.org/2000/svg">
<g clip-path="url(#clip0_5687_63158)">
<path d="M45.7959 11.1992C45.7959 4.23459 51.0055 0.00195312 56.7469 0.00195312C62.93 0.00195312 66.5504 4.01408 66.5504 10.0537C66.5504 10.8909 66.4624 11.6851 66.3744 12.2589H48.2238V9.43709H64.2104L63.2838 10.4518C63.2838 5.38203 60.766 2.8686 56.8368 2.8686C52.9076 2.8686 49.4182 5.86598 49.4182 11.2012C49.4182 16.5364 53.0386 19.5767 57.8083 19.5767C60.3692 19.5767 62.4002 18.7825 64.3433 17.5492L65.6687 19.9299C63.5497 21.3408 60.811 22.4863 57.3666 22.4863C50.9195 22.4863 45.7959 18.3434 45.7959 11.2012V11.1992Z" fill="white"/>
<path d="M17.6619 11.1992C17.6619 4.23264 22.8734 0 28.6128 0C34.796 0 38.4163 4.01213 38.4163 10.0537C38.4163 10.8909 38.3284 11.6851 38.2404 12.2588H20.0898V9.43709H36.0764L35.1498 10.4518C35.1498 5.38203 32.632 2.86859 28.7028 2.86859C24.7735 2.86859 21.2842 5.86598 21.2842 11.2012C21.2842 16.5364 24.9045 19.5786 29.6743 19.5786C32.2351 19.5786 34.2662 18.7844 36.2093 17.5511L37.5347 19.9319C35.4157 21.3427 32.6769 22.4882 29.2325 22.4882C22.7855 22.4882 17.6619 18.3434 17.6619 11.2012V11.1992Z" fill="white"/>
<path d="M49.3869 9.42383H26.3062V12.2612H49.3869V9.42383Z" fill="white"/>
<path d="M52.5635 12.2768H32.7924V9.43555H38.4164H45.7939H52.5635V12.2768Z" fill="white"/>
<path d="M28.7946 9.4375H9.02344V12.2768H28.7946V9.4375Z" fill="white"/>
<path d="M9.02356 9.43523C9.02356 9.43523 -2.99279 9.1152 0.707705 22.5332L3.61259 22.4864C3.61259 22.4864 -0.0175376 12.2902 9.20732 12.2765L9.02161 9.43523H9.02356Z" fill="white"/>
<path d="M33.539 8.00255H33.5332C33.3396 7.99865 33.1832 7.84058 33.1872 7.64544C33.2028 6.70095 32.9702 5.98283 32.501 5.51058C31.8852 4.89198 31.0388 4.89393 31.0329 4.89393C30.8413 4.89784 30.6791 4.74172 30.6771 4.54853C30.6752 4.35534 30.8277 4.19532 31.0212 4.19142C31.0662 4.19142 32.1589 4.17776 32.9917 5.00516C33.6074 5.61791 33.9104 6.50971 33.8909 7.6552C33.887 7.84644 33.7306 8.0006 33.539 8.0006V8.00255Z" fill="white"/>
<path d="M61.6007 8.82479H61.5597C61.3661 8.79942 61.2293 8.62574 61.2528 8.43255C61.3642 7.49392 61.2078 6.75628 60.7875 6.23915C60.2382 5.56201 59.3996 5.4781 59.3898 5.47615C59.1963 5.45858 59.0536 5.28881 59.0712 5.09562C59.0888 4.90243 59.2569 4.75997 59.4504 4.77558C59.4954 4.77949 60.5842 4.87901 61.327 5.78642C61.8764 6.45771 62.0875 7.37488 61.9526 8.51451C61.9311 8.69209 61.7806 8.82479 61.6046 8.82479H61.6007Z" fill="white"/>
<path d="M53.4665 42.703C53.9357 40.5818 55.0519 39.1065 57.429 39.1065C59.1942 39.1065 60.2752 40.1486 60.3104 42.1273V42.6659L53.4665 42.7011V42.703ZM53.2495 46.7659H65.8934C66.2179 45.6867 66.3625 44.5003 66.3625 43.6007C66.3274 38.1347 63.4088 34.9695 57.7887 34.9695C50.548 34.9695 47.0527 39.3934 47.0527 45.6497C47.0527 51.5839 50.4033 56.2576 57.7887 56.2576C61.0317 56.2576 63.3365 55.358 65.8582 53.3441L64.1653 49.3886C62.1127 50.7195 60.2381 51.7615 57.8258 51.7615C54.7997 51.7615 53.5037 50.0716 53.2515 46.762L53.2495 46.7659ZM37.1124 35.4027L32.5733 49.8238L27.8172 35.4027H21.4405L29.9421 57.3387C28.7164 59.4248 27.133 60.3224 25.0061 60.3224C24.0697 60.3224 22.8812 60.1058 21.5109 59.6746L21.114 64.2409C22.4101 64.7444 24.2848 64.9961 25.7255 64.9961C29.7603 64.9961 33.0014 63.3062 34.6962 58.4881L43.3776 35.4008H37.1104L37.1124 35.4027ZM6.88872 51.3342V45.1482H14.8508V40.6521H6.88872V35.8691H16.2915V31.373H0.406494V55.8263H17.0128V51.3303H6.89067L6.88872 51.3342Z" fill="white"/>
<path d="M121.297 35.4027L116.758 49.8238L112.002 35.4027H105.626L114.127 57.3387C112.901 59.4248 111.318 60.3224 109.191 60.3224C108.255 60.3224 107.066 60.1058 105.696 59.6746L105.299 64.2409C106.595 64.7444 108.47 64.9961 109.911 64.9961C113.945 64.9961 117.186 63.3062 118.881 58.4881L127.563 35.4008H121.295L121.297 35.4027ZM93.6326 31.375L86.3919 43.3509L79.1512 31.375H73.0267V55.8283H79.3311V49.3554L78.8619 41.337L83.9406 49.896H88.8394L93.8105 41.5166L93.4508 49.3554V55.8283H99.7552V31.375H93.6307H93.6326Z" fill="white"/>
<path d="M186.102 42.703C186.571 40.5818 187.687 39.1065 190.064 39.1065C191.83 39.1065 192.911 40.1486 192.946 42.1273V42.6659L186.102 42.7011V42.703ZM185.885 46.7659H198.529C198.853 45.6867 198.998 44.5003 198.998 43.6007C198.963 38.1347 196.044 34.9695 190.424 34.9695C183.183 34.9695 179.688 39.3934 179.688 45.6497C179.688 51.5839 183.039 56.2576 190.424 56.2576C193.665 56.2576 195.972 55.358 198.494 53.3441L196.801 49.3886C194.748 50.7195 192.874 51.7615 190.461 51.7615C187.435 51.7615 186.139 50.0716 185.887 46.762L185.885 46.7659ZM169.748 35.4027L165.209 49.8238L160.453 35.4027H154.076L162.578 57.3387C161.352 59.4248 159.768 60.3224 157.642 60.3224C156.705 60.3224 155.517 60.1058 154.146 59.6746L153.75 64.2409C155.046 64.7444 156.92 64.9961 158.361 64.9961C162.396 64.9961 165.637 63.3062 167.332 58.4881L176.013 35.4008H169.746L169.748 35.4027ZM139.524 51.3342V45.1482H147.486V40.6521H139.524V35.8691H148.927V31.373H133.04V55.8263H149.646V51.3303H139.524V51.3342Z" fill="white"/>
</g>
<defs>
<clipPath id="clip0_5687_63158">
<rect width="199" height="65" fill="white"/>
</clipPath>
</defs>
</svg>
