<svg width="14" height="14" viewBox="0 0 14 14" fill="none" xmlns="http://www.w3.org/2000/svg">
<g clip-path="url(#clip0_8134_444)">
<path d="M12.769 1.94886C12.0629 1.23505 11.1091 0.840422 10.0832 0.837523C9.02725 0.833996 7.96905 1.23409 7.1212 1.94533C6.15693 1.09617 5.28466 0.682129 4.46328 0.682129C3.31616 0.682129 2.25185 1.13393 1.47368 1.94711C0.888796 2.53199 0.488046 3.29991 0.314331 4.16799C0.262323 4.42888 0.431362 4.68255 0.692276 4.73475C0.952862 4.78645 1.20683 4.61772 1.25903 4.3568C1.39517 3.67591 1.70487 3.07818 2.16214 2.62077C2.76419 1.99173 3.58155 1.64542 4.46331 1.64542C5.10214 1.64542 5.876 2.07587 6.75518 2.91633C6.85375 3.0154 6.98331 3.07014 7.11995 3.07031C7.12011 3.07031 7.12044 3.07031 7.12057 3.07031C7.25688 3.07031 7.38644 3.01589 7.48518 2.91715C8.19496 2.20736 9.13739 1.80084 10.0718 1.80084C10.0749 1.80084 10.0777 1.80084 10.0806 1.80084C10.8593 1.80292 11.5523 2.08855 12.0788 2.62077C12.6966 3.26603 13.0369 4.11117 13.0369 5.00094C13.0369 5.89136 12.6889 6.75753 12.092 7.36792L7.12839 12.1661L3.19251 8.36332C3.00129 8.17853 2.69641 8.18413 2.51146 8.37489C2.32667 8.56626 2.33197 8.87115 2.52319 9.05594L6.79382 13.1821C6.88709 13.2723 7.00784 13.3174 7.12839 13.3174C7.24895 13.3174 7.3697 13.2723 7.46314 13.1822L12.7709 8.05105C13.552 7.25264 14 6.14098 14 5.00091C14 3.8618 13.5647 2.77986 12.769 1.94886Z" fill="white"/>
<path d="M13.133 6.1088H9.24771C9.11509 6.1088 8.98857 6.16321 8.89771 6.25955L7.43717 7.80389L5.75493 3.98794C5.68269 3.82401 5.52535 3.71371 5.34666 3.70168C5.16893 3.69027 4.99732 3.77777 4.90369 3.93046L3.56759 6.1088H0.48166C0.215605 6.1088 0 6.32441 0 6.59046C0 6.85651 0.215605 7.07212 0.48166 7.07212H3.83701C4.00446 7.07212 4.16005 6.98511 4.24755 6.84221L5.24426 5.21745L6.84832 8.85584C6.91335 9.00355 7.04804 9.10871 7.20699 9.13616C7.23428 9.14081 7.26173 9.14322 7.28902 9.14322C7.42036 9.14322 7.54734 9.0896 7.63902 8.99261L9.45517 7.07209H13.1331C13.3991 7.07209 13.6147 6.85646 13.6147 6.59043C13.6147 6.32441 13.3991 6.1088 13.133 6.1088Z" fill="white"/>
</g>
<defs>
<clipPath id="clip0_8134_444">
<rect width="14" height="14" fill="white"/>
</clipPath>
</defs>
</svg>
