<svg width="16" height="16" viewBox="0 0 16 16" fill="none" xmlns="http://www.w3.org/2000/svg">
<path opacity="0.4" d="M0.5 3.83525C0.5 1.997 2.02268 0.5 3.8934 0.5H7.61423C9.48114 0.5 11 1.9925 11 3.82775V12.1648C11 14.0037 9.47732 15.5 7.60584 15.5H3.88653C2.01886 15.5 0.5 14.0075 0.5 12.1722V11.4672V3.83525Z" fill="#A8A8A8"/>
<path d="M15.3342 7.59152L13.1998 5.40977C12.9792 5.18477 12.6242 5.18477 12.4044 5.41127C12.1852 5.63777 12.186 6.00302 12.4058 6.22802L13.5753 7.42277H12.454H6.16131C5.85088 7.42277 5.59888 7.68152 5.59888 8.00027C5.59888 8.31977 5.85088 8.57777 6.16131 8.57777H13.5753L12.4058 9.77252C12.186 9.99752 12.1852 10.3628 12.4044 10.5893C12.5147 10.7025 12.6586 10.7595 12.8032 10.7595C12.9464 10.7595 13.0903 10.7025 13.1998 10.5908L15.3342 8.40977C15.4401 8.30102 15.5 8.15402 15.5 8.00027C15.5 7.84727 15.4401 7.70027 15.3342 7.59152Z" fill="#A8A8A8"/>
</svg>
