<svg width="16" height="16" viewBox="0 0 16 16" fill="none" xmlns="http://www.w3.org/2000/svg">
<path d="M8.01338 1.93945C6.95251 1.93945 5.9351 2.36088 5.18495 3.11103C4.43481 3.86117 4.01338 4.87859 4.01338 5.93945V7.86612C3.99204 8.34672 3.86213 8.81624 3.63338 9.23945L2.86671 10.5128C2.75222 10.6811 2.67956 10.8744 2.65478 11.0765C2.62999 11.2786 2.6538 11.4836 2.72421 11.6747C2.79463 11.8657 2.90962 12.0372 3.05963 12.1748C3.20964 12.3125 3.39034 12.4123 3.58671 12.4661C6.45747 13.4261 9.56262 13.4261 12.4334 12.4661C12.623 12.4029 12.796 12.2978 12.9395 12.1587C13.0831 12.0196 13.1935 11.85 13.2626 11.6624C13.3317 11.4749 13.3578 11.2742 13.3389 11.0752C13.32 10.8762 13.2566 10.684 13.1534 10.5128L12.3867 9.23945C12.1631 8.8146 12.0356 8.34574 12.0134 7.86612V5.93945C12.0102 4.87956 11.5878 3.86398 10.8383 3.11452C10.0889 2.36506 9.07327 1.94262 8.01338 1.93945V1.93945Z" stroke="#737373" stroke-width="0.7" stroke-linecap="round"/>
<path d="M9.2467 2.13166C9.03732 2.06998 8.82328 2.02539 8.6067 1.99833C7.9951 1.91716 7.37335 1.96254 6.78003 2.13166C6.87747 1.88397 7.04723 1.67135 7.26721 1.5215C7.48719 1.37165 7.74719 1.2915 8.01336 1.2915C8.27953 1.2915 8.53954 1.37165 8.75951 1.5215C8.97949 1.67135 9.14926 1.88397 9.2467 2.13166V2.13166Z" stroke="#737373" stroke-width="0.7" stroke-linecap="round" stroke-linejoin="round"/>
<path d="M10.0134 12.7085C10.0118 13.2384 9.80062 13.7462 9.42589 14.121C9.05116 14.4957 8.54337 14.7069 8.01343 14.7085C7.48333 14.7072 6.97526 14.4963 6.60009 14.1218C6.22559 13.7467 6.0147 13.2386 6.01343 12.7085" stroke="#737373" stroke-width="0.7"/>
</svg>
