<svg width="19" height="19" viewBox="0 0 19 19" fill="none" xmlns="http://www.w3.org/2000/svg">
<path d="M16.6505 14.2745C16.1608 13.8379 15.7321 13.3374 15.3758 12.7865C14.987 12.0261 14.7539 11.1956 14.6903 10.3439V7.8352C14.6936 6.49737 14.2083 5.20437 13.3256 4.19912C12.4428 3.19387 11.2234 2.54557 9.89635 2.37602V1.72092C9.89635 1.54112 9.82492 1.36868 9.69778 1.24154C9.57064 1.1144 9.3982 1.04297 9.2184 1.04297C9.03859 1.04297 8.86615 1.1144 8.73901 1.24154C8.61187 1.36868 8.54045 1.54112 8.54045 1.72092V2.38618C7.2253 2.56795 6.02058 3.22017 5.14943 4.22204C4.27827 5.22391 3.79972 6.50755 3.80239 7.8352V10.3439C3.73879 11.1956 3.50571 12.0261 3.11682 12.7865C2.76687 13.3362 2.34502 13.8366 1.86248 14.2745C1.80831 14.3221 1.7649 14.3806 1.73513 14.4463C1.70536 14.512 1.68991 14.5832 1.68982 14.6554V15.346C1.68982 15.4807 1.74332 15.6099 1.83856 15.7051C1.9338 15.8003 2.06296 15.8538 2.19765 15.8538H16.3153C16.45 15.8538 16.5792 15.8003 16.6744 15.7051C16.7696 15.6099 16.8232 15.4807 16.8232 15.346V14.6554C16.8231 14.5832 16.8076 14.512 16.7778 14.4463C16.7481 14.3806 16.7047 14.3221 16.6505 14.2745ZM2.74611 14.8382C3.2186 14.3817 3.6346 13.8702 3.98521 13.3147C4.47507 12.3963 4.76089 11.3829 4.82313 10.3439V7.8352C4.80299 7.24004 4.90282 6.64691 5.11668 6.09114C5.33054 5.53536 5.65405 5.02831 6.06795 4.60017C6.48185 4.17202 6.97767 3.83155 7.52589 3.59902C8.07412 3.36648 8.66353 3.24665 9.25902 3.24665C9.85452 3.24665 10.4439 3.36648 10.9922 3.59902C11.5404 3.83155 12.0362 4.17202 12.4501 4.60017C12.864 5.02831 13.1875 5.53536 13.4014 6.09114C13.6152 6.64691 13.7151 7.24004 13.6949 7.8352V10.3439C13.7572 11.3829 14.043 12.3963 14.5328 13.3147C14.8834 13.8702 15.2995 14.3817 15.7719 14.8382H2.74611Z" fill="#147EFA"/>
<path d="M9.28164 17.5485C9.60154 17.5411 9.90853 17.4208 10.1483 17.209C10.3881 16.9971 10.5452 16.7072 10.5918 16.3906H7.92065C7.96863 16.7158 8.13309 17.0125 8.38344 17.2255C8.63379 17.4384 8.95298 17.5532 9.28164 17.5485Z" fill="#147EFA"/>
</svg>
