<svg width="41" height="40" viewBox="0 0 41 40" fill="none" xmlns="http://www.w3.org/2000/svg">
<ellipse cx="20.8298" cy="20" rx="19.9247" ry="20" fill="#3CD856"/>
<path fill-rule="evenodd" clip-rule="evenodd" d="M12.8599 14C12.8599 11.7909 14.644 10 16.8448 10H18.8222C21.0314 10 22.8222 11.7909 22.8222 14C22.8222 16.2091 24.6064 18 26.8072 18C27.9076 18 28.7997 18.8921 28.7997 19.9925V26C28.7997 28.2091 27.0155 30 24.8147 30H16.8448C14.644 30 12.8599 28.2091 12.8599 26V14ZM16.8448 19C16.2946 19 15.8486 19.4477 15.8486 20C15.8486 20.5523 16.2946 21 16.8448 21H18.8373C19.3875 21 19.8335 20.5523 19.8335 20C19.8335 19.4477 19.3875 19 18.8373 19H16.8448ZM16.8448 23C16.2946 23 15.8486 23.4477 15.8486 24C15.8486 24.5523 16.2946 25 16.8448 25H20.8298C21.38 25 21.826 24.5523 21.826 24C21.826 23.4477 21.38 23 20.8298 23H16.8448ZM25.494 12.1988L25.3635 14.1629C25.3234 14.7666 25.8224 15.2674 26.4238 15.2272L28.3805 15.0962C29.2345 15.0391 29.6239 13.9989 29.0187 13.3913L27.1924 11.5582C26.5872 10.9507 25.5509 11.3415 25.494 12.1988Z" fill="white"/>
</svg>
