<svg width="20" height="20" viewBox="0 0 20 20" fill="none" xmlns="http://www.w3.org/2000/svg">
<g id="Arrow - Left Square">
<path id="Fill 1" opacity="0.4" d="M5.91588 20L14.0839 20C17.6229 20 19.9999 17.724 19.9999 14.335L19.9999 5.665C19.9999 2.276 17.6229 2.10152e-07 14.0839 1.6795e-07L5.91588 7.05476e-08C2.37788 2.83574e-08 -0.000121859 2.277 -0.000121899 5.666L-0.000122003 14.335C-0.000122043 17.724 2.37788 20 5.91588 20" fill="#AACBEA"/>
<path id="Fill 4" d="M10.8555 14.2797L14.6205 10.5317C14.9035 10.2497 14.9035 9.75067 14.6205 9.46767L10.8555 5.71967C10.5615 5.42767 10.0865 5.42867 9.79446 5.72267C9.50246 6.01667 9.50246 6.49067 9.79646 6.78367L12.2735 9.25067L5.91846 9.25067C5.50346 9.25067 5.16846 9.58667 5.16846 10.0007C5.16846 10.4147 5.50346 10.7507 5.91846 10.7507L12.2735 10.7507L9.79646 13.2167C9.64946 13.3637 9.57646 13.5557 9.57646 13.7487C9.57646 13.9397 9.64946 14.1317 9.79446 14.2777C10.0865 14.5707 10.5615 14.5717 10.8555 14.2797" fill="#2C7DCD"/>
</g>
</svg>
