<svg width="16" height="16" viewBox="0 0 16 16" fill="none" xmlns="http://www.w3.org/2000/svg">
<path d="M6.10666 7.2464C6.03348 7.23973 5.95984 7.23973 5.88666 7.2464C5.1108 7.21758 4.37723 6.88542 3.84374 6.32135C3.31024 5.75728 3.01942 5.00636 3.03384 4.2301C3.04825 3.45384 3.36674 2.71423 3.92081 2.17036C4.47487 1.62648 5.22026 1.32178 5.99666 1.32178C6.77306 1.32178 7.51844 1.62648 8.07251 2.17036C8.62658 2.71423 8.94507 3.45384 8.95948 4.2301C8.97389 5.00636 8.68308 5.75728 8.14958 6.32135C7.61608 6.88542 6.88252 7.21758 6.10666 7.2464Z" stroke="#737373" stroke-width="0.7" stroke-linecap="round" stroke-linejoin="round"/>
<path d="M10.9401 2.6665C11.5589 2.6665 12.1524 2.91234 12.59 3.34992C13.0276 3.78751 13.2734 4.381 13.2734 4.99984C13.2738 5.60395 13.0399 6.18468 12.6209 6.61985C12.2019 7.05503 11.6304 7.31073 11.0267 7.33317C10.9691 7.3265 10.911 7.3265 10.8534 7.33317" stroke="#737373" stroke-width="0.7" stroke-linecap="round" stroke-linejoin="round"/>
<path d="M2.77335 9.70796C1.16002 10.788 1.16002 12.548 2.77335 13.6213C3.7822 14.2234 4.93516 14.5413 6.11002 14.5413C7.28488 14.5413 8.43785 14.2234 9.44669 13.6213C11.06 12.5413 11.06 10.7813 9.44669 9.70796C8.43675 9.10902 7.28421 8.79297 6.11002 8.79297C4.93584 8.79297 3.7833 9.10902 2.77335 9.70796V9.70796Z" stroke="#737373" stroke-width="0.7" stroke-linecap="round" stroke-linejoin="round"/>
<path d="M12.2267 13.3335C12.7001 13.2404 13.1467 13.0422 13.5334 12.7535C13.7724 12.6009 13.9692 12.3904 14.1056 12.1417C14.2419 11.8929 14.3133 11.6138 14.3133 11.3302C14.3133 11.0465 14.2419 10.7674 14.1056 10.5186C13.9692 10.2699 13.7724 10.0595 13.5334 9.90683C13.1505 9.62576 12.7117 9.43024 12.2467 9.3335" stroke="#737373" stroke-width="0.7" stroke-linecap="round" stroke-linejoin="round"/>
</svg>
