<svg xmlns="http://www.w3.org/2000/svg" width="87" height="87" viewBox="0 0 87 87">
  <g id="noun-offers-3927054" transform="translate(0)">
    <path id="Path_3336" data-name="Path 3336" d="M220.724,108.391a1.417,1.417,0,0,1,1.871.118l4.772,4.772.216.2a4.252,4.252,0,0,0,4.314.762l6.3-2.419.158-.05a1.417,1.417,0,0,1,1.673.865l1.938,5.05.108.255a4.25,4.25,0,0,0,3.861,2.473h5.411l.165.009a1.417,1.417,0,0,1,1.252,1.408v6.75l.009.278a4.251,4.251,0,0,0,2.512,3.606l6.169,2.748.147.076a1.418,1.418,0,0,1,.572,1.8l-2.2,4.941-.11.271a4.252,4.252,0,0,0,.986,4.466l3.827,3.825.118.133a1.418,1.418,0,0,1-.119,1.871l-4.775,4.773-.2.215a4.252,4.252,0,0,0-.762,4.316l2.422,6.3.049.158a1.416,1.416,0,0,1-.865,1.671l-5.051,1.938-.255.108a4.249,4.249,0,0,0-2.473,3.862v5.411l-.009.165a1.417,1.417,0,0,1-1.407,1.251H244.6l-.278.009a4.25,4.25,0,0,0-3.606,2.514l-2.746,6.169-.076.146a1.417,1.417,0,0,1-1.794.571l-4.943-2.2-.271-.109a4.25,4.25,0,0,0-4.466.987l-3.824,3.826-.133.118a1.417,1.417,0,0,1-1.87-.119l-4.775-4.775-.215-.2a4.254,4.254,0,0,0-4.316-.761l-6.3,2.422-.157.05a1.418,1.418,0,0,1-1.671-.866l-1.94-5.052-.107-.255a4.25,4.25,0,0,0-3.862-2.472h-5.41l-.165-.009a1.417,1.417,0,0,1-1.251-1.408V174.6l-.009-.278a4.25,4.25,0,0,0-2.514-3.6l-6.167-2.746-.147-.075a1.419,1.419,0,0,1-.571-1.8l2.2-4.944.109-.271a4.251,4.251,0,0,0-.987-4.464l-3.825-3.824-.118-.133a1.418,1.418,0,0,1,.119-1.871l4.773-4.774.2-.215a4.251,4.251,0,0,0,.762-4.313l-2.419-6.3-.05-.157a1.417,1.417,0,0,1,.865-1.673l5.051-1.94.255-.108a4.251,4.251,0,0,0,2.472-3.86v-5.41l.009-.165a1.417,1.417,0,0,1,1.408-1.252h6.752l.279-.009a4.253,4.253,0,0,0,3.6-2.513l2.746-6.168.076-.146a1.418,1.418,0,0,1,1.795-.572l4.942,2.2.271.11a4.251,4.251,0,0,0,4.464-.986l3.826-3.825Zm12.914,46.035a7.794,7.794,0,1,0,7.793,7.794A7.794,7.794,0,0,0,233.638,154.427Zm4.081-19.22a1.416,1.416,0,0,0-2,0l-30.058,30.061a1.417,1.417,0,1,0,2,2l30.058-30.058a1.417,1.417,0,0,0,0-2Zm-4.081,22.054a4.96,4.96,0,1,1-4.96,4.96A4.96,4.96,0,0,1,233.638,157.26Zm-24.09-24.089a7.794,7.794,0,1,0,7.794,7.794A7.793,7.793,0,0,0,209.548,133.171Zm0,2.834a4.96,4.96,0,1,1-4.959,4.96A4.96,4.96,0,0,1,209.548,136.005Z" transform="translate(-178.093 -108.094)" fill="#fff"/>
  </g>
</svg>
