<svg width="41" height="40" viewBox="0 0 41 40" fill="none" xmlns="http://www.w3.org/2000/svg">
<ellipse cx="20.8495" cy="20" rx="19.9247" ry="20" fill="#4596F3"/>
<path d="M30.1742 16.27L29.8863 13.5C29.4669 10.48 28.1021 9.25 25.1831 9.25H14.4636C11.5346 9.25 10.1798 10.48 9.75138 13.53L9.4824 16.28C9.37388 17.3223 9.6661 18.3668 10.2993 19.2C10.6792 19.6911 11.1677 20.0868 11.7262 20.3558C12.2847 20.6248 12.8978 20.7597 13.5172 20.75C14.1431 20.743 14.759 20.5914 15.3172 20.307C15.8754 20.0226 16.3609 19.613 16.736 19.11C17.0835 19.6126 17.5464 20.024 18.0856 20.3093C18.6248 20.5947 19.2244 20.7457 19.8339 20.7496C20.4434 20.7536 21.0449 20.6103 21.5877 20.3319C22.1305 20.0535 22.5986 19.6481 22.9525 19.15C23.3289 19.6412 23.8113 20.0403 24.3635 20.3175C24.9156 20.5946 25.5232 20.7425 26.1405 20.75C26.7753 20.7606 27.4035 20.6181 27.9721 20.3345C28.5407 20.0509 29.0332 19.6344 29.4081 19.12C30.0096 18.2996 30.283 17.2827 30.1742 16.27Z" fill="white"/>
<path d="M19.2057 24.66C18.5945 24.7267 18.0295 25.0179 17.6193 25.4775C17.2092 25.9372 16.9829 26.5329 16.9841 27.15V29.89C16.9843 30.0199 17.0359 30.1444 17.1273 30.2362C17.2188 30.3281 17.3428 30.3798 17.4722 30.38H22.2243C22.3537 30.3798 22.4777 30.3281 22.5692 30.2362C22.6607 30.1444 22.7122 30.0199 22.7124 29.89V27.5C22.7224 25.41 21.497 24.425 19.2057 24.66Z" fill="white"/>
<path d="M29.188 22.4001V25.3801C29.188 26.0367 29.0592 26.6869 28.8088 27.2935C28.5585 27.9001 28.1916 28.4513 27.729 28.9156C26.7949 29.8533 25.5279 30.3801 24.2068 30.3801C24.0774 30.3798 23.9534 30.3281 23.8619 30.2363C23.7704 30.1444 23.7189 30.02 23.7187 29.8901V27.5001C23.7523 26.9529 23.6674 26.4049 23.4696 25.8938C23.2718 25.3828 22.9659 24.9209 22.573 24.5401C21.8212 23.903 20.8557 23.5776 19.8732 23.6301C19.6169 23.629 19.3608 23.6423 19.1061 23.6701C18.2487 23.7582 17.4547 24.1632 16.8784 24.8064C16.302 25.4496 15.9846 26.285 15.9879 27.1501V29.8901C15.9876 30.02 15.9361 30.1444 15.8446 30.2363C15.7531 30.3281 15.6291 30.3798 15.4997 30.3801C14.1786 30.3801 12.9116 29.8533 11.9775 28.9156C11.0433 27.9779 10.5185 26.7062 10.5185 25.3801V22.4201C10.5186 22.2595 10.5572 22.1014 10.631 21.9589C10.7048 21.8165 10.8117 21.694 10.9426 21.6018C11.0736 21.5096 11.2247 21.4505 11.3832 21.4293C11.5418 21.4081 11.7031 21.4255 11.8535 21.4801C12.1192 21.5714 12.3926 21.6383 12.6704 21.6801C12.792 21.7033 12.9153 21.7167 13.039 21.7201C13.1976 21.74 13.3573 21.75 13.5172 21.7501C14.6823 21.74 15.8083 21.3268 16.7052 20.5801C17.5816 21.3351 18.6983 21.7501 19.8533 21.7501C21.0032 21.759 22.1177 21.3506 22.9914 20.6001C23.8792 21.333 24.9901 21.7388 26.1395 21.7501C26.316 21.7503 26.4922 21.7403 26.6675 21.7201C26.7871 21.7101 26.8967 21.7001 27.0062 21.6801C27.3013 21.634 27.5915 21.5603 27.873 21.4601C28.0223 21.4095 28.1814 21.3951 28.3373 21.4182C28.4931 21.4413 28.6413 21.5012 28.7697 21.5929C28.898 21.6847 29.0029 21.8057 29.0756 21.946C29.1483 22.0863 29.1868 22.2419 29.188 22.4001Z" fill="white"/>
</svg>
