<svg width="18" height="18" viewBox="0 0 18 18" fill="none" xmlns="http://www.w3.org/2000/svg">
<path d="M15.75 4.48438C13.2525 4.23687 10.74 4.10938 8.235 4.10938C6.74716 4.10952 5.26028 4.18461 3.78 4.33438L2.25 4.48438" stroke="#F81414" stroke-width="1.2" stroke-linecap="round" stroke-linejoin="round"/>
<path d="M6.375 3.7275L6.54 2.745C6.66 2.0325 6.75 1.5 8.0175 1.5H9.9825C11.25 1.5 11.3475 2.0625 11.46 2.7525L11.625 3.7275" stroke="#F81414" stroke-width="1.2" stroke-linecap="round" stroke-linejoin="round"/>
<path d="M14.1374 6.85547L13.6499 14.408C13.5674 15.5855 13.4999 16.5005 11.4074 16.5005H6.59243C4.49993 16.5005 4.43243 15.5855 4.34993 14.408L3.86243 6.85547" stroke="#F81414" stroke-width="1.2" stroke-linecap="round" stroke-linejoin="round"/>
<path d="M7.74756 12.375H10.2451" stroke="#F81414" stroke-width="1.2" stroke-linecap="round" stroke-linejoin="round"/>
<path d="M7.125 9.375H10.875" stroke="#F81414" stroke-width="1.2" stroke-linecap="round" stroke-linejoin="round"/>
</svg>
